# xmcd
#
# Track frame offsets:
#       150
#       12517
#       20696
#       33971
#       39937
#       53997
#       70870
#       81296
#       89078
#       96044
#       111402
#       124775
#       144111
#       162909
#       171428
#       179837
#
# Disc length: 2557 seconds
#
# Revision: 0
# Processed by: cddbd v1.5.1PL0 Copyright (c) Steve Scherf et al.
# Submitted via: CD-DA_X-Tractor v0.24
#
DISCID=dd09fb10
DTITLE=Broque - Dancing On My Hat
DYEAR=2002
DGENRE=Blues
TTITLE0=Linus Seven
TTITLE1=Invention 4
TTITLE2=Dancing on My Hat
TTITLE3=Invention 10
TTITLE4=Charlie the Chaplain
TTITLE5=Whisper
TTITLE6=Blue Zoo
TTITLE7=Sah Tea
TTITLE8=Invention 8
TTITLE9=Surprise Pudding
TTITLE10=Manila Waltz
TTITLE11=Una Nota
TTITLE12=Joy
TTITLE13=Invention 1
TTITLE14=Boysenberry
TTITLE15=Prelude in D minor
EXTD=
EXTT0=
EXTT1=
EXTT2=
EXTT3=
EXTT4=
EXTT5=
EXTT6=
EXTT7=
EXTT8=
EXTT9=
EXTT10=
EXTT11=
EXTT12=
EXTT13=
EXTT14=
EXTT15=
PLAYORDER=
